<?xml version="1.0" encoding="UTF-8"?>
<svg version="1.1" xmlns="http://www.w3.org/2000/svg" width="173" height="40">
<path d="M0 0 C2.18780378 2.27276704 2.75671923 3.43778241 3.13671875 6.52734375 C3.09546875 7.70296875 3.05421875 8.87859375 3.01171875 10.08984375 C3.67171875 10.08984375 4.33171875 10.08984375 5.01171875 10.08984375 C5.01171875 9.42984375 5.01171875 8.76984375 5.01171875 8.08984375 C7.26171875 6.96484375 7.26171875 6.96484375 10.01171875 6.08984375 C11.35308242 6.74020189 12.68704129 7.40613925 14.01171875 8.08984375 C16.07841272 7.1815065 16.07841272 7.1815065 18.01171875 6.08984375 C19.00171875 6.41984375 19.99171875 6.74984375 21.01171875 7.08984375 C21.93984375 6.84234375 21.93984375 6.84234375 22.88671875 6.58984375 C25.52452161 5.96918425 27.40983335 6.4393724 30.01171875 7.08984375 C30.01171875 7.74984375 30.01171875 8.40984375 30.01171875 9.08984375 C30.67171875 9.08984375 31.33171875 9.08984375 32.01171875 9.08984375 C32.67171875 7.76984375 33.33171875 6.44984375 34.01171875 5.08984375 C34.81609375 5.25484375 35.62046875 5.41984375 36.44921875 5.58984375 C39.29274981 6.14467908 41.20475553 5.95422003 44.07421875 5.58984375 C45.37359375 5.42484375 46.67296875 5.25984375 48.01171875 5.08984375 C48.01171875 6.07984375 48.01171875 7.06984375 48.01171875 8.08984375 C48.91921875 7.71859375 49.82671875 7.34734375 50.76171875 6.96484375 C54.01171875 6.08984375 54.01171875 6.08984375 56.38671875 6.96484375 C56.92296875 7.33609375 57.45921875 7.70734375 58.01171875 8.08984375 C58.01171875 7.42984375 58.01171875 6.76984375 58.01171875 6.08984375 C60.32421875 5.83984375 60.32421875 5.83984375 63.01171875 6.08984375 C65.41483326 8.32722623 65.975133 9.55325279 66.19921875 12.83984375 C66.10640625 13.95359375 66.10640625 13.95359375 66.01171875 15.08984375 C61.80667117 16.29128592 58.21676633 16.29128592 54.01171875 15.08984375 C54.01171875 15.74984375 54.01171875 16.40984375 54.01171875 17.08984375 C52.01171875 16.08984375 50.01171875 15.08984375 48.01171875 14.08984375 C47.51671875 15.57484375 47.51671875 15.57484375 47.01171875 17.08984375 C45.52671875 16.59484375 45.52671875 16.59484375 44.01171875 16.08984375 C42.52671875 16.58484375 42.52671875 16.58484375 41.01171875 17.08984375 C39.52671875 16.59484375 39.52671875 16.59484375 38.01171875 16.08984375 C37.02171875 16.08984375 36.03171875 16.08984375 35.01171875 16.08984375 C35.01171875 15.42984375 35.01171875 14.76984375 35.01171875 14.08984375 C34.26921875 14.44046875 33.52671875 14.79109375 32.76171875 15.15234375 C29.87944615 16.13493668 28.7999553 16.12252395 26.01171875 15.08984375 C26.01171875 15.74984375 26.01171875 16.40984375 26.01171875 17.08984375 C18.01171875 17.08984375 18.01171875 17.08984375 15.69921875 15.96484375 C13.00722959 14.76628688 13.00722959 14.76628688 10.44921875 16.15234375 C9.24265625 16.61640625 9.24265625 16.61640625 8.01171875 17.08984375 C5.69921875 15.71484375 5.69921875 15.71484375 4.01171875 14.08984375 C3.57859375 15.30671875 3.14546875 16.52359375 2.69921875 17.77734375 C1.44970246 21.12723742 -0.01951692 24.08982192 -1.98828125 27.08984375 C-2.97828125 26.75984375 -3.96828125 26.42984375 -4.98828125 26.08984375 C-4.98828125 24.76984375 -4.98828125 23.44984375 -4.98828125 22.08984375 C-4.32828125 22.08984375 -3.66828125 22.08984375 -2.98828125 22.08984375 C-1.99828125 18.62484375 -1.99828125 18.62484375 -0.98828125 15.08984375 C-1.60703125 16.03859375 -2.22578125 16.98734375 -2.86328125 17.96484375 C-4.98828125 21.08984375 -4.98828125 21.08984375 -6.98828125 23.08984375 C-6.65828125 24.07984375 -6.32828125 25.06984375 -5.98828125 26.08984375 C-6.97828125 26.41984375 -7.96828125 26.74984375 -8.98828125 27.08984375 C-9.31828125 26.75984375 -9.64828125 26.42984375 -9.98828125 26.08984375 C-10.31828125 27.07984375 -10.64828125 28.06984375 -10.98828125 29.08984375 C-11.73078125 28.75984375 -12.47328125 28.42984375 -13.23828125 28.08984375 C-16.12711437 26.86201504 -16.12711437 26.86201504 -19.98828125 27.08984375 C-20.07078125 26.36796875 -20.15328125 25.64609375 -20.23828125 24.90234375 C-21.13578326 21.53671121 -22.69970905 19.67371559 -24.98828125 17.08984375 C-24.65828125 18.73984375 -24.32828125 20.38984375 -23.98828125 22.08984375 C-22.99828125 22.41984375 -22.00828125 22.74984375 -20.98828125 23.08984375 C-21.31828125 24.07984375 -21.64828125 25.06984375 -21.98828125 26.08984375 C-23.30828125 26.08984375 -24.62828125 26.08984375 -25.98828125 26.08984375 C-31.91127572 14.75622458 -31.91127572 14.75622458 -29.98828125 8.08984375 C-29.81296875 7.43628906 -29.63765625 6.78273438 -29.45703125 6.109375 C-29.00031913 4.42692814 -28.49857999 2.75681963 -27.98828125 1.08984375 C-26.99828125 1.08984375 -26.00828125 1.08984375 -24.98828125 1.08984375 C-24.98828125 0.42984375 -24.98828125 -0.23015625 -24.98828125 -0.91015625 C-16.20123197 -7.01227381 -8.37401052 -6.27088996 0 0 Z M-16.98828125 1.08984375 C-17.31828125 2.40984375 -17.64828125 3.72984375 -17.98828125 5.08984375 C-16.66828125 4.42984375 -15.34828125 3.76984375 -13.98828125 3.08984375 C-14.97828125 2.42984375 -15.96828125 1.76984375 -16.98828125 1.08984375 Z M-23.98828125 2.08984375 C-23.65828125 3.07984375 -23.32828125 4.06984375 -22.98828125 5.08984375 C-22.65828125 4.09984375 -22.32828125 3.10984375 -21.98828125 2.08984375 C-22.64828125 2.08984375 -23.30828125 2.08984375 -23.98828125 2.08984375 Z M-11.98828125 2.08984375 C-11.98828125 3.07984375 -11.98828125 4.06984375 -11.98828125 5.08984375 C-10.66828125 4.75984375 -9.34828125 4.42984375 -7.98828125 4.08984375 C-9.30828125 3.42984375 -10.62828125 2.76984375 -11.98828125 2.08984375 Z M-2.98828125 4.08984375 C-1.98828125 6.08984375 -1.98828125 6.08984375 -1.98828125 6.08984375 Z M-1.98828125 6.08984375 C-0.98828125 8.08984375 -0.98828125 8.08984375 -0.98828125 8.08984375 Z M-25.98828125 7.08984375 C-24.98828125 9.08984375 -24.98828125 9.08984375 -24.98828125 9.08984375 Z M-26.98828125 9.08984375 C-25.98828125 11.08984375 -25.98828125 11.08984375 -25.98828125 11.08984375 Z M-4.98828125 11.08984375 C-3.98828125 13.08984375 -3.98828125 13.08984375 -3.98828125 13.08984375 Z M-11.98828125 15.08984375 C-11.98828125 15.74984375 -11.98828125 16.40984375 -11.98828125 17.08984375 C-11.32828125 16.75984375 -10.66828125 16.42984375 -9.98828125 16.08984375 C-10.64828125 15.75984375 -11.30828125 15.42984375 -11.98828125 15.08984375 Z " fill="#1C3B40" transform="translate(73.98828125,7.91015625)"/>
<path d="M0 0 C1.2065625 0.2475 1.2065625 0.2475 2.4375 0.5 C5.28103106 1.05483533 7.19303678 0.86437628 10.0625 0.5 C11.361875 0.335 12.66125 0.17 14 0 C14 0.99 14 1.98 14 3 C15.36125 2.443125 15.36125 2.443125 16.75 1.875 C20 1 20 1 22.375 1.875 C22.91125 2.24625 23.4475 2.6175 24 3 C24 2.34 24 1.68 24 1 C26.3125 0.75 26.3125 0.75 29 1 C31.40311451 3.23738248 31.96341425 4.46340904 32.1875 7.75 C32.0946875 8.86375 32.0946875 8.86375 32 10 C27.79495242 11.20144217 24.20504758 11.20144217 20 10 C20 10.66 20 11.32 20 12 C18 11 16 10 14 9 C13.67 9.99 13.34 10.98 13 12 C12.01 11.67 11.02 11.34 10 11 C9.01 11.33 8.02 11.66 7 12 C6.01 11.67 5.02 11.34 4 11 C3.01 11 2.02 11 1 11 C1 10.34 1 9.68 1 9 C0.2575 9.350625 -0.485 9.70125 -1.25 10.0625 C-4.1322726 11.04509293 -5.21176345 11.0326802 -8 10 C-8 10.66 -8 11.32 -8 12 C-16 12 -16 12 -18.3125 10.875 C-21.01699955 9.70808479 -21.01699955 9.70808479 -23.8125 10.875 C-24.534375 11.24625 -25.25625 11.6175 -26 12 C-27.65 10.02 -29.3 8.04 -31 6 C-30.34 5.67 -29.68 5.34 -29 5 C-29 4.34 -29 3.68 -29 3 C-26.75 1.875 -26.75 1.875 -24 1 C-22.65863633 1.65035814 -21.32467746 2.3162955 -20 3 C-17.93330603 2.09166275 -17.93330603 2.09166275 -16 1 C-15.01 1.33 -14.02 1.66 -13 2 C-12.38125 1.835 -11.7625 1.67 -11.125 1.5 C-8.48719714 0.8793405 -6.6018854 1.34952865 -4 2 C-4 2.66 -4 3.32 -4 4 C-3.34 4 -2.68 4 -2 4 C-1.34 2.68 -0.68 1.36 0 0 Z " fill="#17353E" transform="translate(108,13)"/>
<path d="M0 0 C0.969375 0.33 1.93875 0.66 2.9375 1 C5.88353791 2.33463281 5.88353791 2.33463281 8.1875 1.0625 C8.785625 0.711875 9.38375 0.36125 10 0 C10.99 0.33 11.98 0.66 13 1 C13.66 0.79375 14.32 0.5875 15 0.375 C15.66 0.25125 16.32 0.1275 17 0 C18.75 1.4375 18.75 1.4375 20 3 C19.34 4.32 18.68 5.64 18 7 C17.34 7 16.68 7 16 7 C16 7.66 16 8.32 16 9 C16.66 9 17.32 9 18 9 C18 9.66 18 10.32 18 11 C10 11 10 11 7.6875 9.875 C4.98300045 8.70808479 4.98300045 8.70808479 2.1875 9.875 C1.465625 10.24625 0.74375 10.6175 0 11 C-1.65 9.02 -3.3 7.04 -5 5 C-4.34 4.67 -3.68 4.34 -3 4 C-3 3.34 -3 2.68 -3 2 C-2.01 1.34 -1.02 0.68 0 0 Z " fill="#132D3A" transform="translate(82,14)"/>
<path d="M0 0 C4.01130806 3.07988978 5.54424761 5.55941765 6.625 10.5 C7.29563443 17.91137024 4.53393259 23.18408874 0.625 29.3125 C-0.365 28.9825 -1.355 28.6525 -2.375 28.3125 C-2.375 26.9925 -2.375 25.6725 -2.375 24.3125 C-1.715 24.3125 -1.055 24.3125 -0.375 24.3125 C1.98077993 19.74817638 2.33404942 15.33788776 1.625 10.3125 C-0.17764078 6.56855377 -1.74082765 4.75930324 -5.125 2.375 C-9.45561951 0.95922054 -11.92318873 1.36375334 -16.375 2.3125 C-17.365 2.9725 -18.355 3.6325 -19.375 4.3125 C-20.365 4.3125 -21.355 4.3125 -22.375 4.3125 C-22.375 3.3225 -22.375 2.3325 -22.375 1.3125 C-15.23343775 -3.84529496 -7.60739571 -4.45230529 0 0 Z " fill="#53903C" transform="translate(71.375,5.6875)"/>
<path d="M0 0 C0.33 0.66 0.66 1.32 1 2 C3.64 1.67 6.28 1.34 9 1 C9 2.32 9 3.64 9 5 C8.01 5.495 8.01 5.495 7 6 C8.32 6.99 9.64 7.98 11 9 C11.33 8.67 11.66 8.34 12 8 C11.01 7.34 10.02 6.68 9 6 C11.97 6.33 14.94 6.66 18 7 C18 8.66666667 18 10.33333333 18 12 C17.01 12.33 16.02 12.66 15 13 C14.67 12.67 14.34 12.34 14 12 C13.67 12.99 13.34 13.98 13 15 C11.88625 14.505 11.88625 14.505 10.75 14 C7.86116688 12.77217129 7.86116688 12.77217129 4 13 C3.87625 11.9171875 3.87625 11.9171875 3.75 10.8125 C3.16020861 7.83318536 3.16020861 7.83318536 0.875 5.375 C0.25625 4.59125 -0.3625 3.8075 -1 3 C-0.67 2.01 -0.34 1.02 0 0 Z " fill="#132E34" transform="translate(50,22)"/>
<path d="M0 0 C1.32 0.33 2.64 0.66 4 1 C3.42415568 3.38564077 2.77772405 5.66682784 2 8 C1.72952003 12.77847941 2.01348746 16.60876176 4 21 C4.99 21.33 5.98 21.66 7 22 C6.67 22.99 6.34 23.98 6 25 C4.68 25 3.36 25 2 25 C-3.92299447 13.66638083 -3.92299447 13.66638083 -2 7 C-1.8246875 6.34644531 -1.649375 5.69289063 -1.46875 5.01953125 C-1.01203788 3.33708439 -0.51029874 1.66697588 0 0 Z " fill="#458539" transform="translate(46,9)"/>
<path d="M0 0 C0.99 0.825 1.98 1.65 3 2.5 C2.67 3.49 2.34 4.48 2 5.5 C1.443125 5.21125 0.88625 4.9225 0.3125 4.625 C-0.450625 4.25375 -1.21375 3.8825 -2 3.5 C-2.7425 3.108125 -3.485 2.71625 -4.25 2.3125 C-8.2070758 1.14336397 -10.94292173 1.71475905 -15 2.5 C-15.99 3.16 -16.98 3.82 -18 4.5 C-18.99 4.5 -19.98 4.5 -21 4.5 C-21 3.51 -21 2.52 -21 1.5 C-14.62618203 -3.10331298 -6.66347406 -4.7847258 0 0 Z " fill="#8AC856" transform="translate(70,5.5)"/>
<path d="M0 0 C1.5778125 0.2475 1.5778125 0.2475 3.1875 0.5 C6.82431396 0.97695921 9.44847492 0.77960307 13 0 C12.4 5.4 12.4 5.4 10.75 7.875 C8.41786614 9.37422891 6.71628175 9.22023906 4 9 C4 8.34 4 7.68 4 7 C3.34 7 2.68 7 2 7 C1.01 5.02 0.02 3.04 -1 1 C-0.67 0.67 -0.34 0.34 0 0 Z " fill="#66A24B" transform="translate(54,12)"/>
<path d="M0 0 C0.721875 0.391875 1.44375 0.78375 2.1875 1.1875 C1.5275 2.8375 0.8675 4.4875 0.1875 6.1875 C-0.4725 6.1875 -1.1325 6.1875 -1.8125 6.1875 C-1.8125 6.8475 -1.8125 7.5075 -1.8125 8.1875 C-1.1525 8.1875 -0.4925 8.1875 0.1875 8.1875 C0.1875 8.8475 0.1875 9.5075 0.1875 10.1875 C-8.0625 10.1875 -8.0625 10.1875 -11.8125 9.1875 C-11.8125 7.5375 -11.8125 5.8875 -11.8125 4.1875 C-10.8225 4.6825 -10.8225 4.6825 -9.8125 5.1875 C-8.48389075 5.53919068 -7.15091672 5.87520276 -5.8125 6.1875 C-5.4825 5.1975 -5.1525 4.2075 -4.8125 3.1875 C-5.8025 2.8575 -6.7925 2.5275 -7.8125 2.1875 C-3.50480769 -1.0125 -3.50480769 -1.0125 0 0 Z " fill="#14313B" transform="translate(99.8125,14.8125)"/>
<path d="M0 0 C2.3125 -0.25 2.3125 -0.25 5 0 C7.40311451 2.23738248 7.96341425 3.46340904 8.1875 6.75 C8.125625 7.4925 8.06375 8.235 8 9 C5.10765685 9.82638376 3.11257569 10 0 10 C-1.36952673 7.26094655 -1.12621361 5.02912668 -1 2 C-0.67 1.34 -0.34 0.68 0 0 Z " fill="#14383E" transform="translate(132,14)"/>
<path d="M0 0 C2.8125 2 2.8125 2 5 4 C1.25 5.125 1.25 5.125 -1 4 C-1.33 5.32 -1.66 6.64 -2 8 C-5 6 -5 6 -6 5 C-7.65 5.66 -9.3 6.32 -11 7 C-11 6.01 -11 5.02 -11 4 C-7.42014785 1.08616686 -4.67926479 -0.95984919 0 0 Z " fill="#153138" transform="translate(63,6)"/>
<path d="M0 0 C2.32758311 0.93103324 3.74357132 1.65382128 5.25 3.6875 C6.27095909 6.83545718 6.12632947 9.71543368 6 13 C4.68 13.33 3.36 13.66 2 14 C1.67 13.34 1.34 12.68 1 12 C1.66 12 2.32 12 3 12 C2.34 11.34 1.68 10.68 1 10 C0.34 10 -0.32 10 -1 10 C-0.814375 9.071875 -0.62875 8.14375 -0.4375 7.1875 C0.24123881 3.98656229 0.24123881 3.98656229 -1 1 C-0.67 0.67 -0.34 0.34 0 0 Z " fill="#204348" transform="translate(67,10)"/>
<path d="M0 0 C0 0.99 0 1.98 0 3 C0.99 2.67 1.98 2.34 3 2 C2.34 3.98 1.68 5.96 1 8 C0.0925 7.649375 -0.815 7.29875 -1.75 6.9375 C-4.87758436 6.03531221 -6.05208081 5.86618493 -9 7 C-9 3 -9 3 -8 1 C-5.2303041 0.27113266 -2.87137415 0 0 0 Z " fill="#142D3B" transform="translate(122,13)"/>
<path d="M0 0 C0.99 0.33 1.98 0.66 3 1 C3 1.66 3 2.32 3 3 C3.66 3.33 4.32 3.66 5 4 C4.67 5.32 4.34 6.64 4 8 C1.5625 7.625 1.5625 7.625 -1 7 C-1.33 6.34 -1.66 5.68 -2 5 C-2.33 6.32 -2.66 7.64 -3 9 C-5.475 8.01 -5.475 8.01 -8 7 C-6.68 6.67 -5.36 6.34 -4 6 C-4 5.01 -4 4.02 -4 3 C-2.1875 1.25 -2.1875 1.25 0 0 Z " fill="#22383F" transform="translate(90,14)"/>
<path d="M0 0 C2.0625 0.4375 2.0625 0.4375 4 1 C3.85691406 1.55171875 3.71382812 2.1034375 3.56640625 2.671875 C2.9544691 5.18714769 2.43873189 7.71042508 1.9375 10.25 C1.67259766 11.58804687 1.67259766 11.58804687 1.40234375 12.953125 C1.26957031 13.62859375 1.13679688 14.3040625 1 15 C-0.87592203 11.81908874 -1.24719681 9.48656709 -1.1875 5.8125 C-1.18105469 4.93207031 -1.17460938 4.05164063 -1.16796875 3.14453125 C-1 1 -1 1 0 0 Z " fill="#539E3E" transform="translate(46,9)"/>
<path d="M0 0 C-0.58652344 0.28617187 -1.17304687 0.57234375 -1.77734375 0.8671875 C-3.76452927 1.87998856 -5.65454113 2.97254162 -7.5625 4.125 C-11 6 -11 6 -14 6 C-14 5.01 -14 4.02 -14 3 C-9.72130704 -0.72660355 -5.34957055 -0.31468062 0 0 Z " fill="#5FB041" transform="translate(63,4)"/>
<path d="M0 0 C0.99 0.33 1.98 0.66 3 1 C3.33 3.97 3.66 6.94 4 10 C3.01 10 2.02 10 1 10 C0.01 7.36 -0.98 4.72 -2 2 C-1.34 1.34 -0.68 0.68 0 0 Z " fill="#5E984A" transform="translate(73,9)"/>
<path d="M0 0 C1.98 0.66 3.96 1.32 6 2 C5.67 2.66 5.34 3.32 5 4 C3.35 3.67 1.7 3.34 0 3 C-0.33 4.32 -0.66 5.64 -1 7 C-1.99 6.34 -2.98 5.68 -4 5 C-2.68 3.35 -1.36 1.7 0 0 Z " fill="#193641" transform="translate(62,7)"/>
<path d="M0 0 C3.10551666 0 4.35261084 0.5393715 7 2 C6.6875 3.9375 6.6875 3.9375 6 6 C5.01 6.33 4.02 6.66 3 7 C3 6.34 3 5.68 3 5 C2.34 5 1.68 5 1 5 C0.67 3.35 0.34 1.7 0 0 Z " fill="#5AA436" transform="translate(55,14)"/>
<path d="M0 0 C2.26274788 0.35355436 3.95088852 0.97544426 6 2 C6.625 4.0625 6.625 4.0625 7 6 C3.84915995 6 2.66128684 5.54526333 0 4 C-0.66 3.34 -1.32 2.68 -2 2 C-1.34 1.34 -0.68 0.68 0 0 Z " fill="#2E444A" transform="translate(115,18)"/>
<path d="M0 0 C-0.33 1.98 -0.66 3.96 -1 6 C-1.99 6 -2.98 6 -4 6 C-4 5.34 -4 4.68 -4 4 C-4.66 3.67 -5.32 3.34 -6 3 C-6 2.34 -6 1.68 -6 1 C-3.92446352 0.4465236 -2.15634036 0 0 0 Z " fill="#7FBF59" transform="translate(67,12)"/>
<path d="M0 0 C2.475 0.495 2.475 0.495 5 1 C4.6875 2.9375 4.6875 2.9375 4 5 C3.01 5.33 2.02 5.66 1 6 C0.67 4.02 0.34 2.04 0 0 Z " fill="#0E2329" transform="translate(131,18)"/>
<path d="M0 0 C0.99 1.32 1.98 2.64 3 4 C2.01 4.495 2.01 4.495 1 5 C0.67 5.99 0.34 6.98 0 8 C-1.32 7.34 -2.64 6.68 -4 6 C-3.01 5.67 -2.02 5.34 -1 5 C-1.66 4.34 -2.32 3.68 -3 3 C-2.01 2.01 -1.02 1.02 0 0 Z " fill="#112935" transform="translate(67,17)"/>
<path d="M0 0 C1.9375 0.3125 1.9375 0.3125 4 1 C4.33 1.99 4.66 2.98 5 4 C3.68 4 2.36 4 1 4 C1 4.66 1 5.32 1 6 C0.01 5.67 -0.98 5.34 -2 5 C-1.34 3.35 -0.68 1.7 0 0 Z " fill="#18404E" transform="translate(127,19)"/>
<path d="M0 0 C1.32 0.66 2.64 1.32 4 2 C3.34 2 2.68 2 2 2 C2 2.66 2 3.32 2 4 C2.66 4 3.32 4 4 4 C4 4.66 4 5.32 4 6 C2.02 6 0.04 6 -2 6 C-1.34 5.67 -0.68 5.34 0 5 C0 3.35 0 1.7 0 0 Z " fill="#70878B" transform="translate(96,19)"/>
<path d="M0 0 C1.98 0.495 1.98 0.495 4 1 C3.67 1.99 3.34 2.98 3 4 C1.68 4 0.36 4 -1 4 C-0.67 2.68 -0.34 1.36 0 0 Z " fill="#203B31" transform="translate(49,30)"/>
<path d="M0 0 C1.98 0.495 1.98 0.495 4 1 C4 1.99 4 2.98 4 4 C2.35 3.67 0.7 3.34 -1 3 C-0.67 2.01 -0.34 1.02 0 0 Z " fill="#22433A" transform="translate(46,9)"/>
<path d="M0 0 C0.99 0 1.98 0 3 0 C3 0.66 3 1.32 3 2 C2.01 2 1.02 2 0 2 C0 1.34 0 0.68 0 0 Z " fill="#0C171F" transform="translate(68,35)"/>
<path d="" fill="#FCFFEE" transform="translate(0,0)"/>
</svg>
